<svg id="visual" viewBox="0 0 1920 1080" width="1920" height="1080" xmlns="http://www.w3.org/2000/svg" xmlns:xlink="http://www.w3.org/1999/xlink" version="1.1"><rect x="0" y="0" width="1920" height="1080" fill="#331e1ee6"></rect><path d="M0 288L40 280.5C80 273 160 258 240 246.7C320 235.3 400 227.7 480 217.8C560 208 640 196 720 196.8C800 197.7 880 211.3 960 212.8C1040 214.3 1120 203.7 1200 205C1280 206.3 1360 219.7 1440 226.3C1520 233 1600 233 1680 235.3C1760 237.7 1840 242.3 1880 244.7L1920 247L1920 0L1880 0C1840 0 1760 0 1680 0C1600 0 1520 0 1440 0C1360 0 1280 0 1200 0C1120 0 1040 0 960 0C880 0 800 0 720 0C640 0 560 0 480 0C400 0 320 0 240 0C160 0 80 0 40 0L0 0Z" fill="#886888"></path><path d="M0 225L40 215.2C80 205.3 160 185.7 240 179.8C320 174 400 182 480 187.8C560 193.7 640 197.3 720 195.2C800 193 880 185 960 190.7C1040 196.3 1120 215.7 1200 213.3C1280 211 1360 187 1440 173C1520 159 1600 155 1680 165.3C1760 175.7 1840 200.3 1880 212.7L1920 225L1920 0L1880 0C1840 0 1760 0 1680 0C1600 0 1520 0 1440 0C1360 0 1280 0 1200 0C1120 0 1040 0 960 0C880 0 800 0 720 0C640 0 560 0 480 0C400 0 320 0 240 0C160 0 80 0 40 0L0 0Z" fill="#a28aa2"></path><path d="M0 173L40 172.7C80 172.3 160 171.7 240 169.7C320 167.7 400 164.3 480 153.5C560 142.7 640 124.3 720 116.8C800 109.3 880 112.7 960 113.2C1040 113.7 1120 111.3 1200 123.8C1280 136.3 1360 163.7 1440 167.5C1520 171.3 1600 151.7 1680 150.3C1760 149 1840 166 1880 174.5L1920 183L1920 0L1880 0C1840 0 1760 0 1680 0C1600 0 1520 0 1440 0C1360 0 1280 0 1200 0C1120 0 1040 0 960 0C880 0 800 0 720 0C640 0 560 0 480 0C400 0 320 0 240 0C160 0 80 0 40 0L0 0Z" fill="#bdacbd"></path><path d="M0 92L40 99C80 106 160 120 240 123.8C320 127.7 400 121.3 480 112.7C560 104 640 93 720 92.8C800 92.7 880 103.3 960 108.3C1040 113.3 1120 112.7 1200 111.3C1280 110 1360 108 1440 101.3C1520 94.7 1600 83.3 1680 80.7C1760 78 1840 84 1880 87L1920 90L1920 0L1880 0C1840 0 1760 0 1680 0C1600 0 1520 0 1440 0C1360 0 1280 0 1200 0C1120 0 1040 0 960 0C880 0 800 0 720 0C640 0 560 0 480 0C400 0 320 0 240 0C160 0 80 0 40 0L0 0Z" fill="#d9d0d9"></path><path d="M0 83L40 74.7C80 66.3 160 49.7 240 48.8C320 48 400 63 480 64C560 65 640 52 720 43.8C800 35.7 880 32.3 960 39.7C1040 47 1120 65 1200 66.8C1280 68.7 1360 54.3 1440 53.3C1520 52.3 1600 64.7 1680 72.2C1760 79.7 1840 82.3 1880 83.7L1920 85L1920 0L1880 0C1840 0 1760 0 1680 0C1600 0 1520 0 1440 0C1360 0 1280 0 1200 0C1120 0 1040 0 960 0C880 0 800 0 720 0C640 0 560 0 480 0C400 0 320 0 240 0C160 0 80 0 40 0L0 0Z" fill="#f5f5f570"></path></svg>